<?xml version="1.0" encoding="UTF-8"?>
<svg width="28px" height="13px" viewBox="0 0 28 13" version="1.1" xmlns="http://www.w3.org/2000/svg" xmlns:xlink="http://www.w3.org/1999/xlink">
    <!-- Generator: Sketch 54 (76480) - https://sketchapp.com -->
    <title>Group 3</title>
    <desc>Created with Sketch.</desc>
    <g id="Page-1" stroke="none" stroke-width="1" fill-rule="evenodd">
        <g id="Artboard-Copy-2" transform="translate(-1781.000000, -1178.000000)">
            <g id="Group-3" transform="translate(1781.000000, 1178.000000)">
                <path d="M12.8626001,9.31416575 C11.6120419,9.21708811 10.4036983,8.96107887 9.25569963,8.5657802 L7.90934716,11.9685028 L5.80773481,11.057125 L7.15426767,7.65364695 C6.05191115,7.06938684 5.02685759,6.34848144 4.09931221,5.51208386 L1.60856917,8.11986518 L0,6.435738 L2.49092344,3.82795668 C1.8224377,3.01526191 1.23107453,2.13098654 0.728920961,1.1875958 L0.734784079,1.18391289 L2.76901567,0 C4.96425753,4.12419459 9.17118052,6.91508248 13.9999549,6.91508248 C18.8289999,6.91508248 23.0358327,4.12419459 25.2310745,0 L27.2652159,1.18391289 L27.271079,1.1875958 C26.7689255,2.13098654 26.1775623,3.01526191 25.5091668,3.82795668 L28,6.435738 L26.3914308,8.11986518 L23.900778,5.51217829 C22.9732326,6.34857587 21.9480888,7.06938684 20.8456421,7.65374138 L22.1923554,11.0572194 L20.0905626,11.9685028 L18.7443004,8.5657802 C17.5963017,8.96107887 16.3879581,9.21708811 15.1374901,9.31407132 L15.1374901,13 L12.8626001,13 L12.8626001,9.31416575 Z" id="Fill-1"></path>
            </g>
        </g>
    </g>
</svg>