<?xml version="1.0" encoding="UTF-8"?>
<svg width="30px" height="30px" viewBox="0 0 30 30" version="1.1" xmlns="http://www.w3.org/2000/svg" xmlns:xlink="http://www.w3.org/1999/xlink">
    <!-- Generator: Sketch 54.1 (76490) - https://sketchapp.com -->
    <title>Artboard</title>
    <desc>Created with Sketch.</desc>
    <g id="Artboard" stroke="none" stroke-width="1" fill="none" fill-rule="evenodd">
        <g id="eye" transform="translate(1.000000, 5.000000)" fill="#000000" fill-rule="nonzero">
            <path d="M13.9801617,6.02286604 C11.876766,6.02286604 10.1673957,7.8105919 10.1673957,10.010405 C10.1673957,12.2102181 11.876766,13.9979439 13.9801617,13.9979439 C16.0835574,13.9979439 17.7929277,12.2102181 17.7929277,10.010405 C17.7929277,7.8105919 16.0834979,6.02286604 13.9801617,6.02286604 Z" id="Path"></path>
            <path d="M13.9801617,0.0415576324 C7.62553191,0.0415576324 2.19871489,4.1752648 0,10.010405 C2.19871489,15.8454829 7.62553191,19.9792523 13.9801617,19.9792523 C20.3411064,19.9792523 25.7616085,15.8454829 27.9603234,10.010405 C25.7616085,4.1752648 20.3411064,0.0415576324 13.9801617,0.0415576324 Z M13.9801617,16.6562617 C10.472417,16.6562617 7.62553191,13.6788785 7.62553191,10.0103427 C7.62553191,6.34180685 10.472417,3.36448598 13.9801617,3.36448598 C17.4879064,3.36448598 20.3347915,6.34186916 20.3347915,10.010405 C20.3347915,13.6789408 17.4879064,16.6562617 13.9801617,16.6562617 Z" id="Shape"></path>
        </g>
    </g>
</svg>